<svg xmlns="http://www.w3.org/2000/svg" width="399" height="529" viewBox="0 0 399 529">
    <g fill="none" fill-rule="evenodd" opacity=".3">
        <g>
            <g>
                <g transform="translate(0 -2057) translate(-361 903) translate(137 1154)">
                    <circle cx="312" cy="297" r="8" fill="#D8D8D8"/>
                    <circle cx="312" cy="321" r="8" fill="#D8D8D8"/>
                    <circle cx="468" cy="8" r="8" fill="#D8D8D8"/>
                    <circle cx="360" cy="297" r="8" fill="#D8D8D8"/>
                    <circle cx="384" cy="297" r="8" fill="#D8D8D8"/>
                    <circle cx="384" cy="321" r="8" fill="#D8D8D8"/>
                    <circle cx="615" cy="521" r="8" fill="#D8D8D8"/>
                    <circle cx="336" cy="297" r="8" stroke="#D8D8D8" stroke-width="2"/>
                    <circle cx="336" cy="321" r="8" stroke="#D8D8D8" stroke-width="2"/>
                    <circle cx="360" cy="321" r="8" stroke="#D8D8D8" stroke-width="2"/>
                    <path stroke="#D8D8D8" stroke-width="2" d="M306.152 321.408c-17.66-2.124-32.925-13.73-45.797-34.817-12.87-21.087-27.962-31.212-45.275-30.374-17.924-2.176-39.786 12.045-65.584 42.663-38.697 45.926-86.627 6.371-91.654-4.324C52.814 283.86 33.395 254.78 13 258.626M361 289.543c4.86-17.11 18.711-30.373 41.552-39.786 22.841-9.414 35.202-22.736 37.084-39.967 4.953-17.363-5.673-41.18-31.879-71.45-39.307-45.406 7.259-86.557 18.609-89.85 11.35-3.292 43.11-17.924 42.503-38.669M387.704 321c14.232 10.67 21.65 28.353 22.253 53.05.603 24.698 8.61 41.012 24.022 48.943 14.435 10.847 40.478 9.462 78.13-4.155 56.475-20.425 78.206 37.796 77.212 49.572-.994 11.776 1.284 46.67 20.869 53.538"/>
                </g>
            </g>
        </g>
    </g>
</svg>
