<svg xmlns="http://www.w3.org/2000/svg" xmlns:xlink="http://www.w3.org/1999/xlink" width="1319" height="239" viewBox="0 0 1319 239">
    <defs>
        <path id="n14gy3n2da" d="M0 0H1319V239H0z"/>
        <path id="i1q6u2uefc" d="M0 0.158L170.642 0.158 170.642 155.801 0 155.801z"/>
        <path id="ou33h38w1e" d="M0.69 0.071L199.816 0.071 199.816 175.38 0.69 175.38z"/>
        <path id="0efmd3ck9g" d="M0.141 0.041L166.433 0.041 166.433 215.716 0.141 215.716z"/>
    </defs>
    <g fill="none" fill-rule="evenodd">
        <g>
            <g>
                <g>
                    <g>
                        <g transform="translate(-300 -1203) translate(-361 903) translate(661 300)">
                            <mask id="olah6vl1mb" fill="#fff">
                                <use xlink:href="#n14gy3n2da"/>
                            </mask>
                            <use fill="#2C3176" xlink:href="#n14gy3n2da"/>
                            <g mask="url(#olah6vl1mb)">
                                <g>
                                    <g transform="translate(811 -168) translate(0 202)">
                                        <mask id="vp2hp1my7d" fill="#fff">
                                            <use xlink:href="#i1q6u2uefc"/>
                                        </mask>
                                        <path fill="#D8286A" d="M156.708 87.004c2.35 30.765 7.502 26.033 9.088 45.83.461 5.762-1.805 13.236-12.427 19.768-12.094 7.434-29.063.517-41.738-6.593-12.683-7.115-97.397-71.393-97.397-71.393S3.222 68.106.318 53.882C-2.343 40.858 12.32 33.154 21.45 30.794 28.385 29 99.18 10.747 129.833 2.779c1.677-.437 11.383-2.948 18.483-2.585 11.32.575 23.199 5.954 22.275 23.959-.545 10.613-16.69 26.145-13.883 62.85" mask="url(#vp2hp1my7d)"/>
                                    </g>
                                    <path fill="#BA3F96" d="M312.455 424.022c5.216 2.845 12.977 4.607 17.265 16.09 4.876 13.074-5.107 22.954-14.317 34-8.923 10.705-101.702 91.249-101.702 91.249s-8.974 8.995-23.975 8.628c-13.735-.338-18.957-15.893-18.718-25.058.139-5.373 10.675-154.455 11.822-161.243 1.23-7.276 6.868-11.756 12.506-14.37 7.779-3.607 13.294-2.48 18.117-.166 18.196 8.733 83.596 42.466 99.002 50.87" transform="translate(811 -168)"/>
                                    <g transform="translate(811 -168) translate(369 307)">
                                        <mask id="voakqkbmjf" fill="#fff">
                                            <use xlink:href="#ou33h38w1e"/>
                                        </mask>
                                        <path fill="#804D9E" d="M7.863 100.488c-3.06 4.974-8.893 10.243-6.685 22.216 2.514 13.629 16.288 17.32 29.991 22.393 13.278 4.915 135.451 29.513 135.451 29.513s12.44 3.418 25.277-4.15c11.755-6.929 8.256-22.865 3.319-30.652-2.895-4.563-89.033-127.997-93.534-133.295C96.857.832 89.645-.304 83.397.167c-8.617.651-12.824 4.288-15.82 8.617-11.292 16.32-50.675 77.013-59.714 91.704" mask="url(#voakqkbmjf)"/>
                                    </g>
                                    <path fill="#4E53A3" d="M442.554 214.604c13.942 27.868 7.011 26.25 15.92 44.216 2.594 5.23 8.443 10.627 21.062 11.161 14.36.605 25.502-13.616 32.812-25.929 7.315-12.32 47.472-109.163 47.472-109.163s6.179-10.986 1.31-24.75c-4.456-12.602-21.19-12.199-30.343-9.831-6.953 1.798-77.903 20.202-108.658 28.114-1.682.432-11.414 2.948-17.392 6.7-9.53 5.979-17.048 16.4-6.89 31.596 5.985 8.956 28.074 14.636 44.707 47.886" transform="translate(811 -168)"/>
                                    <g transform="translate(811 -168) translate(187)">
                                        <mask id="psx9atdzxh" fill="#fff">
                                            <use xlink:href="#0efmd3ck9g"/>
                                        </mask>
                                        <path fill="#E21F3B" d="M153.715 105.071c-13.068-15.259-58.679-71.084-88.74-94.42C55.591 3.37 51.278-1.559 42.832.521c-.003 0-.006 0-.008.002-.005 0-.006.001-.007.003-.04.01-.076.02-.11.032-.04.008-.077.014-.114.025l-.009.003-.008.002C33.767 2.995 33.024 9.23 28.7 20.072 14.842 54.812 4.446 125.183 1.085 144.71c-1.54 8.946-2.525 27.401 8.158 35.412 17.11 12.826 41.232-1.359 73.428 18.902 12.393 7.802 14.564 17.922 19.776 16.57l.01.032c.041-.012.086-.028.129-.046.037-.005.076-.01.109-.018l.001.002.011-.005h.014v-.003c.033-.01.068-.026.104-.038.047-.007.094-.012.134-.023l-.009-.035c5.26-1.364 1.823-11.154 8.484-23.905 17.3-33.116 45.532-32.527 53.653-51.904 5.07-12.104-5.386-27.585-11.372-34.58" mask="url(#psx9atdzxh)"/>
                                    </g>
                                </g>
                            </g>
                        </g>
                    </g>
                </g>
            </g>
        </g>
    </g>
</svg>
