<?xml version="1.0"?>
<svg xmlns="http://www.w3.org/2000/svg" xmlns:xlink="http://www.w3.org/1999/xlink" xmlns:svgjs="http://svgjs.com/svgjs" version="1.1" width="512" height="512" x="0" y="0" viewBox="0 0 556.664 556.665" style="enable-background:new 0 0 512 512" xml:space="preserve" class=""><g>
<g xmlns="http://www.w3.org/2000/svg">
	<g>
		<path d="M545.777,241.474l-45.257-60.229l-13.474-74.122c-4.179-23.004-22.545-40.669-45.696-43.958l-74.597-10.584l-61.93-42.885    C289.253-1.08,269.607-2.983,252.276,4.601c-3.837,1.675-7.478,3.801-10.843,6.331l-60.232,45.262l-74.125,13.474    c-4.132,0.751-8.171,1.988-12.019,3.663c-17.078,7.465-29.313,23.574-31.934,42.031l-10.574,74.588L9.655,251.897    c-13.31,19.222-12.821,44.698,1.23,63.391l45.265,60.222l13.463,74.125c4.184,23.007,22.545,40.669,45.702,43.957l74.596,10.584    l61.93,42.886c15.327,10.609,35.459,12.572,52.547,5.1c3.843-1.678,7.498-3.811,10.854-6.332l60.217-45.268l74.14-13.474    c4.122-0.751,8.172-1.988,12.003-3.661c17.083-7.467,29.319-23.57,31.938-42.035l10.574-74.592l42.896-61.94    C560.323,285.633,559.825,260.159,545.777,241.474z M278.333,476.405c-109.222,0-198.074-88.852-198.074-198.068    c0-109.22,88.857-198.071,198.074-198.071c109.211,0,198.069,88.851,198.069,198.071    C476.401,387.553,387.55,476.405,278.333,476.405z" fill="#ba3f96" data-original="#000000" style=""/>
		<path d="M278.333,98.941c-98.913,0-179.391,80.473-179.391,179.396c0,98.913,80.478,179.396,179.391,179.396    c98.922,0,179.391-80.483,179.391-179.396C457.724,179.414,377.255,98.941,278.333,98.941z M231.491,356.635h-36.78V245.987h36.78    V356.635z M213.109,230.875h-0.253c-12.329,0-20.309-8.5-20.309-19.121c0-10.848,8.228-19.11,20.8-19.11    c12.583,0,20.33,8.267,20.567,19.11C233.915,222.375,225.93,230.875,213.109,230.875z M364.113,356.635h-36.774v-59.201    c0-14.877-5.329-25.016-18.637-25.016c-10.159,0-16.207,6.84-18.869,13.453c-0.979,2.36-1.217,5.659-1.217,8.963v61.796h-36.785    c0,0,0.487-100.272,0-110.649h36.785v15.664c4.889-7.537,13.629-18.273,33.15-18.273c24.203,0,42.336,15.816,42.336,49.816v63.447    H364.113z" fill="#ba3f96" data-original="#000000" style=""/>
		<path d="M288.621,262.031v-0.38c-0.072,0.122-0.16,0.259-0.237,0.38H288.621z" fill="#ba3f96" data-original="#000000" style=""/>
	</g>
</g>
<g xmlns="http://www.w3.org/2000/svg">
</g>
<g xmlns="http://www.w3.org/2000/svg">
</g>
<g xmlns="http://www.w3.org/2000/svg">
</g>
<g xmlns="http://www.w3.org/2000/svg">
</g>
<g xmlns="http://www.w3.org/2000/svg">
</g>
<g xmlns="http://www.w3.org/2000/svg">
</g>
<g xmlns="http://www.w3.org/2000/svg">
</g>
<g xmlns="http://www.w3.org/2000/svg">
</g>
<g xmlns="http://www.w3.org/2000/svg">
</g>
<g xmlns="http://www.w3.org/2000/svg">
</g>
<g xmlns="http://www.w3.org/2000/svg">
</g>
<g xmlns="http://www.w3.org/2000/svg">
</g>
<g xmlns="http://www.w3.org/2000/svg">
</g>
<g xmlns="http://www.w3.org/2000/svg">
</g>
<g xmlns="http://www.w3.org/2000/svg">
</g>
</g></svg>
