<svg xmlns="http://www.w3.org/2000/svg" xmlns:xlink="http://www.w3.org/1999/xlink" width="200" height="49" viewBox="0 0 200 49">
    <defs>
        <path id="ri41fclvya" d="M0 0.075L14.026 0.075 14.026 13.638 0 13.638z"/>
        <path id="nao4t0i50c" d="M0.071 0.004L13.621 0.004 13.621 18.451 0.071 18.451z"/>
    </defs>
    <g fill="none" fill-rule="evenodd">
        <path fill="#2A3174" d="M103.2 18.66v10.836c1.08.028 2.001.042 2.763.042 1.191 0 2.009-.373 2.452-1.117.444-.745.666-2.105.666-4.081 0-1.976-.226-3.823-.676-4.574-.45-.752-1.264-1.128-2.442-1.128-.374 0-.862.004-1.465.01-.603.008-1.036.011-1.299.011m-2.598 12.883V16.655c1.898-.125 3.686-.188 5.362-.188 2.175 0 3.696.536 4.562 1.608.866 1.071 1.299 3.481 1.299 6.265 0 2.783-.433 4.71-1.3 5.782-.865 1.072-2.386 1.608-4.56 1.608-1.677 0-3.465-.063-5.363-.188M90.947 23.374c.343-.371 1.34-.471 2.235-.471.77 0 1.317.067 1.611.291.294.225.424.236.424 1.222 0 1.035-.307 1.198-.923 1.198h-3.647c.028-1.065-.042-1.869.3-2.24m2.49 6.275c-.922 0-1.82-.157-2.226-.459-.405-.3-.424-.893-.522-1.79h4.196c1.832 0 2.51-.221 2.51-2.942 0-1.967-.08-2.207-.82-2.803-.742-.595-1.984-.77-3.62-.77-1.776 0-3.237.191-4.006.997-.77.806-.773 1.914-.773 4.419 0 2.984.084 3.536.868 4.362.783.827 2.219 1.067 4.079 1.067 1.86 0 3.165-.264 4.13-.727l-.357-1.586c-1.412.168-2.41.232-3.458.232M125.417 23.374c.342-.371 1.34-.471 2.235-.471.769 0 1.316.067 1.61.291.294.225.424.236.424 1.222 0 1.035-.307 1.198-.923 1.198h-3.647c.028-1.065-.042-1.869.3-2.24m2.49 6.275c-.923 0-1.82-.157-2.226-.459-.405-.3-.424-.893-.522-1.79h4.196c1.832 0 2.51-.221 2.51-2.942 0-1.967-.08-2.207-.82-2.803-.742-.595-1.984-.77-3.62-.77-1.776 0-3.237.191-4.006.997-.769.806-.773 1.914-.773 4.419 0 2.984.084 3.536.868 4.362.783.827 2.219 1.067 4.079 1.067 1.86 0 3.165-.264 4.13-.727l-.357-1.586c-1.413.168-2.41.232-3.458.232M137.951 29.666c-1.298 0-1.396-.526-1.396-1.368 0 0-.043-.799.168-1.15.168-.279.576-.29.979-.304h3.246v1.6c-.985.815-1.984 1.222-2.997 1.222m4.69-8.01c-.437-.51-1.346-.77-2.983-.77-1.61 0-3.31.168-5.099.505l.25 1.81c1.776-.14 3.197-.21 4.266-.21.735 0 1.228.098 1.477.295.25.197.382.59.396 1.179v.632h-3.83c-.956 0-1.917.313-2.106.49-.442.415-.743.604-.743 2.036v1.052c0 1.319.235 1.738.831 2.265.596.526 1.27.79 2.227.79 1.526 0 2.823-.604 3.892-1.811l.27 1.579h1.998v-7.012c0-2.02-.435-2.35-.845-2.83M120.535 20.484c-1.368 0-2.184.617-3.664 1.85l-.196-1.306c-.037-.14-.162-.243-.311-.243h-1.735v10.543h2.58v-7.31c1.156-.755 1.428-1.17 2.655-1.267h.74l.438-2.267h-.507zM73.747 20.897v-.087c0-.17-.12-.309-.271-.326h-2.133v10.844h2.404v-10.43zM172.997 26.728c-.366-.427-.977-.768-1.833-1.02l-2.688-.759c-.068-.014-.176-.042-.325-.084-.15-.042-.245-.07-.285-.084-.041-.014-.116-.042-.225-.084-.108-.043-.176-.077-.203-.106-.028-.028-.071-.066-.132-.116-.062-.049-.1-.101-.112-.157l-.051-.211c-.02-.084-.031-.175-.031-.274 0-.407.129-.656.387-.747.258-.091.835-.137 1.73-.137.856 0 2.125.028 3.809.084l.142-1.369.001-.017.013-.117c-.002-.152-.109-.285-.257-.312-1.244-.195-2.622-.306-4.135-.333-1.493 0-2.545.21-3.156.632-.611.421-.917.622-.917 2.295 0 1.146.174 1.495.52 1.958.346.464.953.822 1.822 1.074l2.627.737c.054.014.15.042.285.084l.275.085c.048.014.122.039.224.073.102.036.173.064.214.085.04.02.095.052.163.094.068.043.115.085.143.127.027.042.054.091.081.147.027.056.047.12.061.19.013.07.02.147.02.231 0 .408-.18.674-.54.8-.359.127-1.075.19-2.148.19-1.297 0-2.298-.02-3.005-.058l-.028-.002-.098-.005c-.145.005-.269.115-.295.263l-.01.102v.016l-.127 1.39c1.29.224 2.68.337 4.174.337 1.643 0 2.797-.208 3.462-.622.665-.414.998-.606.998-2.432 0-1.333-.183-1.52-.55-1.948M62.806 16.467c-.946 0-1.696.247-2.252.741-.557.494-.835 1.18-.835 2.058v12.062h2.628v-6.175h5.673V23.46c-.005-.162-.135-.293-.298-.303h-5.375v-3.355c0-.44.09-.748.271-.927.181-.178.501-.267.96-.267h4.925c.145 0 .276-.093.3-.226.008-.044.019-.176.019-.176V18.2l.116-1.548c-1.224-.123-3.268-.185-6.132-.185M84.492 20.49c-.136.003-.25.093-.293.218l-1.99 6.86-.544 1.845h-.271c-.029-.12-.196-.69-.502-1.846l-1.953-6.663-.022-.075-.022-.077-.007-.025c-.038-.134-.155-.232-.296-.237h-2.44l3.444 10.185c.112.435.237.653.683.653h2.5c.419 0 .572-.218.725-.653l3.47-10.191-2.482.006zM73.747 18.576c0 .166-.134.301-.3.301h-1.804c-.166 0-.3-.135-.3-.301v-1.808c0-.166.134-.3.3-.3h1.804c.166 0 .3.134.3.3v1.808zM161.208 21.237c-.478-.502-1.173-.753-2.086-.753-1.32 0-2.626.588-3.918 1.764-.366-1.176-1.243-1.764-2.634-1.764-1.32 0-2.668.616-4.044 1.85 0 0-.066-.98-.125-1.312-.025-.143-.161-.243-.31-.243h-1.792l-.006 10.549h2.548v-7.38c.717-.488 1.257-.818 1.623-.99.365-.172.744-.258 1.137-.258.464 0 .797.111 1 .333.204.223.3.613.285 1.173v7.122h2.465v-7.359c.73-.502 1.275-.839 1.633-1.011.358-.172.74-.258 1.148-.258.477 0 .807.115.99.344.182.23.28.617.295 1.162v7.122h2.507V23.41c0-.947-.24-1.671-.716-2.173"/>
        <g transform="translate(0 16.869)">
            <mask id="3rgkr381mb" fill="#fff">
                <use xlink:href="#ri41fclvya"/>
            </mask>
            <path fill="#D8286A" d="M12.88 7.643c.194 2.681.617 2.269.748 3.994.038.502-.149 1.153-1.022 1.723-.994.647-2.389.045-3.43-.575-1.043-.62-8.006-6.222-8.006-6.222S.265 5.996.026 4.757c-.219-1.135.987-1.807 1.737-2.012.57-.157 6.39-1.747 8.909-2.442.137-.038.935-.257 1.519-.225.93.05 1.907.519 1.83 2.088-.044.925-1.371 2.278-1.14 5.477" mask="url(#3rgkr381mb)"/>
        </g>
        <path fill="#BA3F96" d="M25.721 36.24c.432.242 1.073.392 1.428 1.37.403 1.112-.423 1.952-1.184 2.892-.737.91-8.407 7.763-8.407 7.763s-.742.765-1.982.734c-1.135-.029-1.567-1.352-1.547-2.132.011-.457.882-13.14.977-13.718.102-.619.568-1 1.034-1.222.643-.307 1.099-.211 1.497-.014 1.505.743 6.911 3.612 8.184 4.327"/>
        <path fill="#804D9E" d="M30.652 34.619c-.252.421-.734.868-.552 1.883.208 1.155 1.345 1.468 2.475 1.898 1.096.417 11.179 2.502 11.179 2.502s1.026.29 2.085-.352c.97-.587.682-1.938.274-2.598-.239-.387-7.347-10.85-7.718-11.3-.399-.481-.994-.577-1.51-.537-.71.055-1.058.363-1.305.73-.932 1.384-4.182 6.528-4.928 7.774"/>
        <path fill="#4E53A3" d="M36.554 18.48c1.15 2.423.579 2.282 1.314 3.843.214.455.696.924 1.738.97 1.185.053 2.104-1.183 2.707-2.253.604-1.07 3.918-9.487 3.918-9.487s.51-.954.108-2.15c-.368-1.096-1.749-1.06-2.504-.855-.574.156-6.429 1.756-8.966 2.443-.14.038-.942.257-1.436.583-.786.52-1.406 1.425-.568 2.745.494.779 2.317 1.272 3.689 4.162"/>
        <g transform="translate(15.23)">
            <mask id="p1wp5lcyxd" fill="#fff">
                <use xlink:href="#nao4t0i50c"/>
            </mask>
            <path fill="#E21F3B" d="M12.585 8.987C11.52 7.682 7.803 2.907 5.354.911 4.589.288 4.238-.133 3.55.045h-.001c-.004 0-.007.002-.01.003L3.53.05h-.001C2.81.256 2.75.79 2.398 1.717c-1.13 2.971-1.976 8.99-2.25 10.66-.126.766-.206 2.344.664 3.03 1.395 1.097 3.36-.117 5.984 1.616 1.01.668 1.187 1.533 1.611 1.418l.001.002.01-.003.01-.002h.002l.008-.004c.004 0 .008 0 .01-.002v-.003c.429-.116.149-.954.691-2.044 1.41-2.833 3.71-2.783 4.372-4.44.414-1.035-.438-2.36-.926-2.958" mask="url(#p1wp5lcyxd)"/>
        </g>
        <path fill="#E21F3B" d="M176.301 31.328c-.233 0-.35-.11-.35-.329v-1.734c0-.231.117-.347.35-.347h1.306c.232 0 .349.116.349.347v1.734c0 .122-.034.207-.101.256-.068.049-.15.073-.248.073H176.3zM182.372 25.734h2.886c.462 0 .801-.09 1.019-.268.217-.178.326-.504.326-.98 0-.46-.066-.823-.198-1.087s-.35-.452-.652-.565c-.304-.111-.7-.168-1.187-.168-.553 0-.988.086-1.305.258-.316.171-.543.478-.682.92-.138.442-.207 1.072-.207 1.89m2.254 5.996c-1.147 0-2.06-.159-2.739-.475-.679-.317-1.17-.868-1.472-1.653-.304-.785-.455-1.876-.455-3.275 0-1.425.145-2.53.435-3.314.29-.785.77-1.336 1.443-1.653.672-.316 1.582-.475 2.728-.475 1.015 0 1.83.103 2.442.307.613.205 1.06.567 1.344 1.089.284.52.426 1.256.426 2.206 0 .673-.132 1.21-.396 1.613-.264.402-.642.69-1.137.86-.494.172-1.077.258-1.75.258h-3.103c.026.66.115 1.184.267 1.573.151.39.428.67.83.84.402.172.992.258 1.77.258h3.202v1.445c-.54.105-1.11.198-1.71.277-.6.079-1.308.119-2.125.119M193.848 31.73c-.97 0-1.723-.277-2.26-.83-.538-.554-.806-1.365-.806-2.432v-7.583h2.437v6.863c0 .707.16 1.18.481 1.42.321.24.757.36 1.307.36.46 0 .905-.073 1.337-.22.432-.146.839-.36 1.219-.64v-7.783H200V31.61h-1.985l-.452-1.12c-.498.32-1.065.607-1.7.86-.636.254-1.307.38-2.015.38"/>
    </g>
</svg>
